PathFileType	4	(X/Y/Z)	C:/Users/opensim2020/Desktop/walking_exp_matlab/subject06_walking21_straight_02.trc																																																																																																																																		
DataRate	CameraRate	NumFrames	NumMarkers	Units	OrigDataRate	OrigDataStartFrame	OrigNumFrames																																																																																																																														
100	100	4	44	mm	100	1304	172																																																																																																																														
Frame#	Time	LFHD			RFHD			LBHD			RBHD			C7			T10			CLAV			STRN			RBAK			LSHO			LUPA			LELB			LFRM			LWRA			LWRB			LFIN			RSHO			RUPA			RELB			RFRM			RWRA			RWRB			RFIN			LASI			RASI			LPSI			RPSI			LTHI			LKNE			LTIB			LANK			LHEE			LTOE			RTHI			RKNE			RTIB			RANK			RHEE			RTOE			*39			*40			*41			*42			*43		
		X1	Y1	Z1	X2	Y2	Z2	X3	Y3	Z3	X4	Y4	Z4	X5	Y5	Z5	X6	Y6	Z6	X7	Y7	Z7	X8	Y8	Z8	X9	Y9	Z9	X10	Y10	Z10	X11	Y11	Z11	X12	Y12	Z12	X13	Y13	Z13	X14	Y14	Z14	X15	Y15	Z15	X16	Y16	Z16	X17	Y17	Z17	X18	Y18	Z18	X19	Y19	Z19	X20	Y20	Z20	X21	Y21	Z21	X22	Y22	Z22	X23	Y23	Z23	X24	Y24	Z24	X25	Y25	Z25	X26	Y26	Z26	X27	Y27	Z27	X28	Y28	Z28	X29	Y29	Z29	X30	Y30	Z30	X31	Y31	Z31	X32	Y32	Z32	X33	Y33	Z33	X34	Y34	Z34	X35	Y35	Z35	X36	Y36	Z36	X37	Y37	Z37	X38	Y38	Z38	X39	Y39	Z39	X40	Y40	Z40	X41	Y41	Z41	X42	Y42	Z42	X43	Y43	Z43	X44	Y44	Z44
																																																																																																																																					
44	0.43	-923.44769	1650.9707	-1518.37244	-930.71326	1638.67725	-1387.42603	-1053.78711	1590.60327	-1527.1709	-1059.55701	1583.77808	-1398.7677	-1051.39807	1432.42883	-1465.00269	-1072.16394	1102.10474	-1445.02051	-937.19812	1360.07239	-1461.96594	-889.2464	1187.23401	-1460.91418	-1118.48376	1260.36096	-1379.33618	-999.91547	1382.89868	-1624.98767	-1047.28528	1185.73718	-1685.61389	-1086.23425	1079.20032	-1687.63037	-1111.22876	931.93542	-1708.82202	-1083.81641	801.84137	-1672.72437	-1147.57544	819.12085	-1702.30908	-1138.78528	727.25983	-1702.20593	-987.62744	1394.22437	-1301.41479	-1014.09601	1197.89453	-1207.55847	-988.78735	1079.99768	-1190.28235	-928.50751	978.33789	-1175.1803	-814.32404	885.5213	-1213.79004	-860.75916	859.59167	-1172.98547	-791.82935	812.72223	-1172.96167	-881.83093	959.17755	-1546.08618	-898.12726	950.20227	-1330.50159	-1042.79248	973.9563	-1531.43213	-1046.69458	970.28162	-1364.43494	-873.435	651.75104	-1618.53882	-823.92847	498.42789	-1591.79492	-811.41882	240.48421	-1592.8374	-791.58606	69.40171	-1553.55725	-832.30389	53.68969	-1509.47473	-646.89197	47.36148	-1540.05493	-986.49298	608.50775	-1290.86194	-1000.63165	481.81702	-1310.18335	-1200.2627	300.23282	-1336.2168	-1333.94092	178.47363	-1390.28516	-1370.36121	190.48741	-1440.02075	-1263.13696	43.17639	-1383.0061	-1028.77173	1684.14026	-1465.1355	NaN	NaN	NaN	NaN	NaN	NaN	NaN	NaN	NaN	NaN	NaN	NaN
45	0.44	-910.26221	1652.80139	-1519.69836	-917.77625	1640.62305	-1388.78149	-1040.65601	1592.56506	-1528.7981	-1046.66687	1585.82605	-1400.35022	-1038.27026	1433.96973	-1466.62695	-1058.60754	1104.35242	-1446.4729	-923.66553	1362.24646	-1463.3374	-875.23895	1189.61829	-1462.19263	-1104.98047	1262.4552	-1380.78589	-985.87573	1385.63721	-1626.28247	-1031.7644	1188.2981	-1687.44421	-1069.57703	1081.4281	-1689.64893	-1093.10583	934.12567	-1711.21436	-1064.38989	804.10309	-1674.65991	-1127.88586	820.44012	-1704.37231	-1118.51599	728.81018	-1704.14563	-974.75403	1396.6123	-1303.1748	-1002.29553	1200.47034	-1209.61804	-978.13013	1082.12	-1193.16345	-920.26532	978.79498	-1177.36084	-808.35474	882.5741	-1214.79346	-856.03693	857.96313	-1174.30042	-788.46893	808.9201	-1173.72522	-868.3324	961.80896	-1548.1698	-884.62524	952.32068	-1332.80383	-1029.22961	976.44305	-1532.37561	-1032.73718	971.93854	-1365.70728	-861.76276	653.3028	-1619.68201	-813.93024	499.32312	-1592.64307	-806.24707	240.84406	-1593.49548	-790.26666	69.44402	-1553.56519	-831.57806	54.06995	-1509.96484	-645.96216	45.95709	-1538.80334	-966.32324	608.80518	-1290.74829	-977.36774	481.8465	-1308.79944	-1179.42407	306.50653	-1336.43616	-1316.95776	189.83125	-1391.13904	-1351.15918	204.60153	-1441.11597	-1257.15356	47.26757	-1383.30212	-1015.65277	1686.14111	-1466.74695	NaN	NaN	NaN	NaN	NaN	NaN	NaN	NaN	NaN	NaN	NaN	NaN
46	0.45	-897.17743	1654.62695	-1521.05127	-904.88055	1642.64075	-1390.10632	-1027.59839	1594.31763	-1530.31299	-1033.80225	1587.74158	-1401.86414	-1025.00732	1435.53271	-1468.11621	-1045.10791	1106.47998	-1448.00769	-910.14435	1364.30273	-1464.56982	-861.37305	1191.75415	-1463.47925	-1091.58997	1264.39905	-1382.33142	-971.84326	1388.28833	-1627.46912	-1016.13483	1190.75208	-1689.24475	-1052.86011	1083.70398	-1691.90088	-1074.42725	935.97791	-1713.45776	-1044.20264	806.263	-1676.74353	-1107.9718	822.09387	-1707.02869	-1097.37549	730.20087	-1706.18884	-961.9248	1398.75403	-1304.83545	-990.49316	1202.89014	-1211.35266	-967.73669	1084.04297	-1195.86511	-912.41211	979.0885	-1179.38135	-802.88763	879.29877	-1215.79541	-851.96686	856.15814	-1175.54517	-785.54852	805.0246	-1174.44824	-855.30627	963.88055	-1550.00598	-870.60791	954.35596	-1334.72656	-1015.63605	978.59656	-1533.43811	-1019.30951	973.43988	-1366.91272	-851.09113	654.35052	-1620.83838	-804.97522	499.80667	-1593.43933	-801.55414	240.96608	-1593.72925	-789.63354	69.51154	-1553.50183	-831.30981	54.29791	-1510.00537	-645.58636	44.91048	-1538.29004	-946.32391	609.22607	-1290.65027	-953.60382	481.87537	-1307.84802	-1157.01514	312.32205	-1336.37952	-1297.74683	200.52719	-1391.41345	-1329.79602	217.78735	-1441.82324	-1250.60229	51.88302	-1382.93542	-1002.69806	1687.97388	-1468.35413	NaN	NaN	NaN	NaN	NaN	NaN	NaN	NaN	NaN	NaN	NaN	NaN
47	0.46	-884.14783	1656.4325	-1522.39514	-892.00043	1644.64282	-1391.44617	-1014.40076	1595.88257	-1531.6554	-1020.7948	1589.54761	-1403.23853	-1011.76385	1437.24902	-1469.57361	-1031.73767	1108.46692	-1449.67578	-896.70319	1366.21301	-1465.69519	-847.64502	1193.70068	-1464.75073	-1078.52368	1266.38916	-1383.94165	-957.66058	1390.75586	-1628.67578	-1000.31555	1193.05518	-1690.995	-1035.92395	1085.58252	-1694.10645	-1055.00171	937.27643	-1715.48352	-1023.37231	808.27808	-1678.92908	-1087.21741	823.16333	-1709.44653	-1075.41345	731.35553	-1708.31909	-949.09161	1400.57825	-1306.29541	-978.23822	1204.88879	-1213.26672	-957.72699	1085.62378	-1198.16687	-904.81818	979.05084	-1181.30872	-796.76062	876.19879	-1216.8219	-847.41235	854.46198	-1176.89807	-783.00922	800.9834	-1175.32837	-842.51239	965.41901	-1551.38538	-858.60107	956.18231	-1336.57324	-1003.06995	980.69983	-1534.73206	-1006.12207	974.81824	-1368.19287	-841.18787	655.07629	-1622.01306	-797.00983	499.8519	-1594.3269	-798.13403	240.95667	-1593.71228	-789.16803	69.5643	-1553.26892	-831.13141	54.53704	-1509.84326	-645.09241	44.16235	-1538.13855	-926.56659	609.6676	-1290.73828	-930.0127	482.24167	-1307.11755	-1133.32861	317.45505	-1335.93921	-1276.82861	209.80833	-1391.1189	-1306.47876	229.50842	-1442.09583	-1243.56372	55.73845	-1384.42761	-989.83478	1689.70459	-1469.87183	NaN	NaN	NaN	NaN	NaN	NaN	NaN	NaN	NaN	NaN	NaN	NaN
